
<svg version="1.1" id="Capa_1" xmlns="http://www.w3.org/2000/svg" xmlns:xlink="http://www.w3.org/1999/xlink" x="0px" y="0px"
	 viewBox="0 0 448 448" style="enable-background:new 0 0 448 448;" xml:space="preserve">
<g>
	<g>
		<path fill="#522e8e" d="M224,0C100.288,0,0,100.288,0,224s100.288,224,224,224s224-100.288,224-224S347.712,0,224,0z M135.921,90.479
			C162.056,73.223,192.682,64.016,224,64c31.363-0.033,62.035,9.208,88.16,26.56l-221.6,221.6
			C41.871,238.418,62.179,139.169,135.921,90.479z M312.079,357.521C285.944,374.777,255.319,383.984,224,384
			c-31.363,0.033-62.035-9.208-88.16-26.56l221.6-221.6C406.129,209.581,385.821,308.831,312.079,357.521z"/>
	</g>
</g>
</svg>
