<svg xmlns="http://www.w3.org/2000/svg" viewBox="0 0 42.52 39.16">
    <g id="Layer_2" data-name="Layer 2">
        <g id="middle">
            <path class="cls-1" d="M24.46,14.64c1.43,1.43,1.62,4.38-3.42,7-5-2.6-4.85-5.55-3.42-7S21,14.17,21,15.3C21,14.17,23,13.2,24.46,14.64ZM8.59,25.1a6.48,6.48,0,1,0-6.48-6.48A6.48,6.48,0,0,0,8.59,25.1Zm1.29,0H7.3A7.37,7.37,0,0,0,0,31.59a.84.84,0,0,0,.85.91H16.32a.84.84,0,0,0,.85-.91A7.37,7.37,0,0,0,9.88,25.15Zm24-7.43a6.48,6.48,0,1,0-6.48-6.48A6.48,6.48,0,0,0,33.93,17.72Zm1.29.05H32.64a7.38,7.38,0,0,0-7.3,6.44.85.85,0,0,0,.86.91H41.66a.84.84,0,0,0,.85-.91A7.37,7.37,0,0,0,35.22,17.77ZM7,11a1.53,1.53,0,0,0,.68.23,1.48,1.48,0,0,0,1.38-.65,12.12,12.12,0,0,1,11-4.86l-.92,2.71,8.72-1.76L22,0,21,2.84A15.07,15.07,0,0,0,6.59,8.94,1.49,1.49,0,0,0,7,11ZM37,26a1.49,1.49,0,0,0-2,.73A12.15,12.15,0,0,1,25,33.22l.48-2.83-8.34,3.1L24,39.16l.51-3h.63a15.08,15.08,0,0,0,12.68-8.25A1.49,1.49,0,0,0,37,26Z"/>
        </g>
    </g>
</svg>