<svg xmlns="http://www.w3.org/2000/svg" viewBox="0 0 31.46 31.46"><defs><style>.cls-1{fill:#e51f76;}.cls-2{fill:#fff;}</style></defs><g id="Layer_2" data-name="Layer 2"><g id="mid_bottom" data-name="mid bottom"><circle class="cls-1" cx="15.73" cy="15.73" r="15.73"/><path class="cls-2" d="M22.27,8.26H18.52a2.39,2.39,0,0,0-4.76,0H10a1.4,1.4,0,0,0-1,2.4,1.42,1.42,0,0,0,1,.39h0V21.56a2.57,2.57,0,0,0,2.41,2.56h7.43a2.56,2.56,0,0,0,2.4-2.56V11.05h0a1.38,1.38,0,0,0,1.4-1.39A1.4,1.4,0,0,0,22.27,8.26Zm-6.12-1A1.29,1.29,0,0,1,17.31,8H15A1.3,1.3,0,0,1,16.15,7.23Zm5.11,14.33a1.56,1.56,0,0,1-1.4,1.55H12.43A1.56,1.56,0,0,1,11,21.56V11.08H21.26V21.56Zm1-11.44h0v0H10v0h0a.47.47,0,0,1,0-.93H22.27a.47.47,0,1,1,0,.93Z"/><path class="cls-2" d="M13.27,20.71a.5.5,0,0,0,.49-.5v-6.3a.48.48,0,0,0-.49-.48.47.47,0,0,0-.48.48v6.3A.49.49,0,0,0,13.27,20.71Z"/><path class="cls-2" d="M16.14,20.71a.5.5,0,0,0,.49-.5v-6.3a.49.49,0,0,0-1,0v6.3A.5.5,0,0,0,16.14,20.71Z"/><path class="cls-2" d="M19.12,20.71a.5.5,0,0,0,.49-.5v-6.3a.48.48,0,0,0-.49-.48.47.47,0,0,0-.48.48v6.3A.49.49,0,0,0,19.12,20.71Z"/></g></g></svg>