<svg xmlns="http://www.w3.org/2000/svg" viewBox="0 0 31.46 31.46"><defs><style>.cls-1{fill:#6159a8;}.cls-2{fill:#fff;}</style></defs><g id="Layer_2" data-name="Layer 2"><g id="mid_bottom" data-name="mid bottom"><circle class="cls-1" cx="15.73" cy="15.73" r="15.73"/><path class="cls-2" d="M16.7,8.79l-8,8.05.16.16a.21.21,0,0,0-.11,0,.72.72,0,0,0-.54.56L6.69,23.85,13,22.36a.73.73,0,0,0,.54-.52.14.14,0,0,0,0-.09l.13.13,8-8ZM7.5,23l.34-1.43a2.4,2.4,0,0,1,1.09,1.09ZM13,21.67a.12.12,0,0,1-.09.09l-3.33.79A3.08,3.08,0,0,0,8,21l.78-3.29a.16.16,0,0,1,.1-.11h0a.19.19,0,0,1,.11,0l3.92,3.92A.12.12,0,0,1,13,21.67Z"/><rect class="cls-2" x="20.22" y="5.68" width="2.13" height="7.13" transform="translate(-0.31 17.76) rotate(-45)"/></g></g></svg>