<svg xmlns="http://www.w3.org/2000/svg" viewBox="0 0 35.46 35.46"><defs><style>.cls-1{fill:#6159a8;}.cls-2{fill:#3a3092;}.cls-3{fill:#d8d6e9;}.cls-4{opacity:0.8;}.cls-5{fill:#fff;}</style></defs><g id="Layer_2" data-name="Layer 2"><g id="mid_bottom" data-name="mid bottom"><path class="cls-1" d="M17.73,34.46A16.73,16.73,0,1,1,34.46,17.73,16.75,16.75,0,0,1,17.73,34.46Z"/><path class="cls-2" d="M17.73,2A15.73,15.73,0,1,1,2,17.73,15.73,15.73,0,0,1,17.73,2m0-2A17.73,17.73,0,1,0,35.46,17.73,17.75,17.75,0,0,0,17.73,0Z"/><path class="cls-3" d="M17.73,2A15.73,15.73,0,1,1,2,17.73,15.73,15.73,0,0,1,17.73,2m0-1A16.73,16.73,0,1,0,34.46,17.73,16.74,16.74,0,0,0,17.73,1Z"/><g class="cls-4"><path class="cls-5" d="M11.25,26.2a2,2,0,0,1-1.41-.58,2,2,0,0,1,0-2.83l13-12.95a2,2,0,0,1,2.83,2.83l-12.95,13A2,2,0,0,1,11.25,26.2Z"/></g><g class="cls-4"><path class="cls-5" d="M24.2,26.2a2,2,0,0,1-1.41-.58L9.84,12.67a2,2,0,1,1,2.83-2.83l13,13A2,2,0,0,1,24.2,26.2Z"/></g></g></g></svg>