<svg xmlns="http://www.w3.org/2000/svg" viewBox="0 0 15.83 20.18">
    <g id="Layer_2" data-name="Layer 2">
        <g id="middle">
            <path class="files" d="M13.37,14.07H2.46a.5.5,0,0,1-.5-.5.51.51,0,0,1,.5-.5H13.37a.51.51,0,0,1,.5.5A.5.5,0,0,1,13.37,14.07Z"/>
            <path class="files" d="M13.37,17.1H2.46a.51.51,0,0,1-.5-.5.5.5,0,0,1,.5-.5H13.37a.5.5,0,0,1,.5.5A.51.51,0,0,1,13.37,17.1Z"/>
            <path class="files" d="M13.37,11H2.46a.5.5,0,1,1,0-1H13.37a.5.5,0,0,1,0,1Z"/>
            <path class="files" d="M13.37,7.92H2.46a.5.5,0,0,1-.5-.5.51.51,0,0,1,.5-.5H13.37a.51.51,0,0,1,.5.5A.5.5,0,0,1,13.37,7.92Z"/>
            <path class="files" d="M13.37,5H2.46a.51.51,0,0,1-.5-.5.5.5,0,0,1,.5-.5H13.37a.5.5,0,0,1,.5.5A.51.51,0,0,1,13.37,5Z"/>
            <path class="files" d="M12.62,0H3.21A3.22,3.22,0,0,0,0,3.21V17a3.22,3.22,0,0,0,3.21,3.21h9.41A3.22,3.22,0,0,0,15.83,17V3.21A3.22,3.22,0,0,0,12.62,0Zm2.21,17a2.21,2.21,0,0,1-2.21,2.21H3.21A2.21,2.21,0,0,1,1,17V3.21A2.21,2.21,0,0,1,3.21,1h9.41a2.21,2.21,0,0,1,2.21,2.21Z"/>
        </g>
    </g>
</svg>