<svg xmlns="http://www.w3.org/2000/svg" viewBox="0 0 16.89 16.63"><defs><style>.cls-1{fill:#6159a8;}</style></defs><g id="Layer_2" data-name="Layer 2"><g id="mid_bottom" data-name="mid bottom"><path class="cls-1" d="M14.34,16.63h-12A2.3,2.3,0,0,1,0,14.34v-12A2.3,2.3,0,0,1,2.29,0H7.2a.69.69,0,0,1,0,1.38H2.29a.91.91,0,0,0-.91.91V14.34a.91.91,0,0,0,.91.91H14.34a.91.91,0,0,0,.91-.91v-6a.69.69,0,1,1,1.38,0v6A2.3,2.3,0,0,1,14.34,16.63Z"/><path class="cls-1" d="M16.89,3.68,10.5,1.11l.21,1.51A13.25,13.25,0,0,0,8.18,4.34,16,16,0,0,0,5.72,7,19.54,19.54,0,0,0,3.91,9.9,18.58,18.58,0,0,0,2.68,13a17.76,17.76,0,0,1,2.06-2.56A17.52,17.52,0,0,1,7.15,8.39,13.5,13.5,0,0,1,9.8,6.89a9.07,9.07,0,0,1,1.44-.49l.22,1.53Z"/></g></g></svg>