<svg xmlns="http://www.w3.org/2000/svg" viewBox="0 0 18.09 20.7">
    <defs><style>.cls-1{fill:#6159a8;}</style></defs>
    <g id="Layer_2" data-name="Layer 2">
        <g id="middle">
            <path class="cls-1" d="M14.52,0H3.57A3.59,3.59,0,0,0,0,3.57V17.13A3.59,3.59,0,0,0,3.57,20.7h11a3.59,3.59,0,0,0,3.57-3.57V3.57A3.59,3.59,0,0,0,14.52,0ZM3.84.9H14.25a2.88,2.88,0,0,1,2.88,2.88V16.6H1V3.78A2.88,2.88,0,0,1,3.84.9ZM15.13,11.31v2.43H3V11.31A3.84,3.84,0,0,1,6.17,7.53a3.9,3.9,0,0,0,5.89,0h0A3.85,3.85,0,0,1,15.13,11.31ZM12.68,5A3.55,3.55,0,1,1,9.13,1.41,3.55,3.55,0,0,1,12.68,5Z"/>
        </g>
    </g>
</svg>