<svg xmlns="http://www.w3.org/2000/svg" viewBox="0 0 20.87 20.87"><defs><style>.cls-1{fill:#fa4943;}.cls-2{fill:#fff;}</style></defs><g id="Layer_2" data-name="Layer 2"><g id="mid_bottom" data-name="mid bottom"><circle class="cls-1" cx="10.44" cy="10.44" r="10.44"/><path class="cls-2" d="M6.26,15.55a1,1,0,0,1-.71-1.71l8.36-8.35A1,1,0,0,1,15.32,6.9L7,15.26A1,1,0,0,1,6.26,15.55Z"/><path class="cls-2" d="M14.62,15.55a1,1,0,0,1-.71-.29L5.55,6.9a1,1,0,0,1,0-1.41A1,1,0,0,1,7,5.49l8.36,8.35a1,1,0,0,1-.7,1.71Z"/></g></g></svg>