<svg xmlns="http://www.w3.org/2000/svg" viewBox="0 0 29.44 25.41"><defs><style>.cls-1{fill:#e51f76;}.cls-2{fill:#fff;}</style></defs><g id="Layer_2" data-name="Layer 2"><g id="mid_bottom" data-name="mid bottom"><path class="cls-1" d="M14.14,16.37v.29L14,16.44l.1,0Z"/><path class="cls-1" d="M17.28,9.76v-1a2.34,2.34,0,0,0-.7-1.66,2.32,2.32,0,0,0-3.27,0,2.48,2.48,0,0,0-.75,1.75V10.1a3.63,3.63,0,1,1,4.72-.34Z"/><path class="cls-1" d="M27.83,0H1.61A1.62,1.62,0,0,0,0,1.61V18a1.61,1.61,0,0,0,1.61,1.6h9.58c-.06-.18-.12-.36-.17-.54A11.15,11.15,0,0,0,9.8,16.39a2.37,2.37,0,0,1,.31-3.26,2.41,2.41,0,0,1,2.45-.37V11.21A4.57,4.57,0,1,1,17.28,11v.85a2.29,2.29,0,0,1,.95.58,2.2,2.2,0,0,1,.4.51,2.31,2.31,0,0,1,1.22.65s0,0,0,0a2.37,2.37,0,0,1,1.84.69A2.31,2.31,0,0,1,22.41,16h0l0,3.64h5.44A1.61,1.61,0,0,0,29.44,18V1.61A1.62,1.62,0,0,0,27.83,0Z"/><path class="cls-2" d="M14.05,16.41l-.1,0,.19.22v-.29Z"/><path class="cls-1" d="M14.05,16.41l-.1,0,.19.22v-.29Z"/><path class="cls-1" d="M21.27,14.73a1.7,1.7,0,0,0-1.65-.44A1.44,1.44,0,0,0,19.4,14a1.71,1.71,0,0,0-1.2-.51,1.63,1.63,0,0,0-.41-.66,1.75,1.75,0,0,0-1.14-.5V8.8a1.75,1.75,0,0,0-.51-1.22A1.71,1.71,0,0,0,15,7.08a1.6,1.6,0,0,0-1.22.49,1.79,1.79,0,0,0-.55,1.29v5.23L13,13.8a1.78,1.78,0,0,0-2.43-.19A1.71,1.71,0,0,0,10.3,16a11.46,11.46,0,0,1,1.32,2.86c.08.25.16.49.25.73a14.18,14.18,0,0,0,1.77,3.33.91.91,0,0,1,.15.49v.66a1.35,1.35,0,0,0,1.34,1.34h3.48a1.92,1.92,0,0,0,1.74-1.13l1.16-2.55a2.85,2.85,0,0,0,.24-1.12v-1l0-3.64A1.71,1.71,0,0,0,21.27,14.73Zm-.45,4.86v1a2,2,0,0,1-.16.73l-1.16,2.55a1,1,0,0,1-.88.57H15.13a.41.41,0,0,1-.4-.39v-.66a1.86,1.86,0,0,0-.32-1.05,13.32,13.32,0,0,1-1.53-2.77c-.13-.33-.25-.67-.36-1a11.83,11.83,0,0,0-1.47-3.16.78.78,0,0,1,.09-1.1.75.75,0,0,1,.5-.18.8.8,0,0,1,.6.27l1.71,2,.1,0,.09,0V8.86a.88.88,0,0,1,.27-.62A.7.7,0,0,1,15,8a.8.8,0,0,1,.52.23.78.78,0,0,1,.23.55v4.75l.62-.21a.77.77,0,0,1,1,.71l0,.61.58-.17a.77.77,0,0,1,.78.2.75.75,0,0,1,.2.33l.17.63.54-.35a.78.78,0,0,1,1,.1.81.81,0,0,1,.23.55Z"/></g></g></svg>