<svg xmlns="http://www.w3.org/2000/svg" viewBox="0 0 31.46 31.46"><defs><style>.cls-1{fill:#6159a8;}.cls-2{fill:#fff;}</style></defs><g id="Layer_2" data-name="Layer 2"><g id="mid_bottom" data-name="mid bottom"><circle class="cls-1" cx="15.73" cy="15.73" r="15.73"/><path class="cls-2" d="M23.66,9.48,22,7.79a2.14,2.14,0,0,0-1.51-.62H9.31A2.14,2.14,0,0,0,7.17,9.31V22.15a2.14,2.14,0,0,0,2.14,2.14H22.15a2.14,2.14,0,0,0,2.14-2.14V11A2.13,2.13,0,0,0,23.66,9.48ZM11.83,8.62a.52.52,0,0,1,.52-.51h6.72a.51.51,0,0,1,.51.51v3.73a.51.51,0,0,1-.51.52H12.35a.53.53,0,0,1-.52-.52Zm9.53,13.14a.67.67,0,0,1-.66.66h-10a.67.67,0,0,1-.66-.66V16.3a.66.66,0,0,1,.66-.66h10a.66.66,0,0,1,.66.66ZM18.22,12H17a.3.3,0,0,1-.29-.29V9.33A.29.29,0,0,1,17,9h1.26a.29.29,0,0,1,.29.29v2.38A.3.3,0,0,1,18.22,12Zm1.69,5.77H11.52a.27.27,0,0,1-.27-.27h0a.27.27,0,0,1,.27-.27h8.39a.27.27,0,0,1,.27.27h0A.27.27,0,0,1,19.91,17.77Zm0,1.6H11.52a.27.27,0,0,1-.27-.27h0a.27.27,0,0,1,.27-.27h8.39a.27.27,0,0,1,.27.27h0A.27.27,0,0,1,19.91,19.37Zm0,1.6H11.52a.27.27,0,0,1-.27-.26h0a.27.27,0,0,1,.27-.27h8.39a.27.27,0,0,1,.27.27h0A.27.27,0,0,1,19.91,21Z"/></g></g></svg>