<svg id="Capa_1" enable-background="new 0 0 512 512" height="18" viewBox="0 0 512 512" width="18" xmlns="http://www.w3.org/2000/svg"><g><path style="fill: #fff" d="m214.939 118.437c-11.41 0-22.202 3.898-31.063 11.109-8.859-7.211-19.651-11.109-31.064-11.109-28.157 0-51.064 24.194-51.064 53.933 0 43.093 24.769 64.287 67.558 86.338 1.999 1.028 7.656 4.188 9.668 5.319 1.521.856 3.211 1.284 4.901 1.284 1.689 0 3.379-.428 4.9-1.283 2.012-1.131 7.671-4.291 9.679-5.324 42.779-22.049 67.546-43.243 67.546-86.335 0-29.738-22.905-53.932-51.061-53.932zm-25.641 122.485c-1.235.636-3.396 1.817-5.422 2.938-2.021-1.118-4.168-2.293-5.416-2.935-42.933-22.125-56.713-38.783-56.713-68.557 0-18.711 13.936-33.933 31.064-33.933 8.287 0 16.082 3.53 21.958 9.95 2.336 2.545 5.654 4.004 9.106 4.004h.01c3.453-.003 6.771-1.467 9.101-4.012 5.871-6.411 13.668-9.942 21.953-9.942 17.127 0 31.061 15.222 31.061 33.933 0 29.775-13.78 46.433-56.702 68.554z"/><path style="fill: #fff" d="m282.282 85.465c-54.264-54.262-142.554-54.261-196.817 0-54.262 54.263-54.262 142.555 0 196.817 26.286 26.286 61.235 40.762 98.409 40.762 37.173 0 72.122-14.476 98.408-40.762s40.762-61.235 40.762-98.408c0-37.174-14.476-72.123-40.762-98.409zm-14.142 182.675c-46.464 46.464-122.066 46.466-168.532 0-46.464-46.465-46.464-122.067 0-168.532 23.232-23.232 53.749-34.848 84.266-34.848 30.518 0 61.034 11.615 84.267 34.848 46.463 46.464 46.463 122.067-.001 168.532z"/><path style="fill: #fff" d="m509.071 436.597-92.577-92.576c-3.906-3.904-10.236-3.904-14.143 0l-4.132 4.132-61.712-61.713c48.054-71.458 40.516-169.452-22.615-232.584-34.729-34.73-80.904-53.856-130.018-53.856-49.115 0-95.289 19.126-130.019 53.855s-53.855 80.904-53.855 130.019c0 49.114 19.126 95.289 53.855 130.019 35.846 35.846 82.932 53.769 130.019 53.769 35.841 0 71.681-10.385 102.565-31.154l61.713 61.712-4.132 4.132c-3.905 3.905-3.905 10.237 0 14.143l92.576 92.577c1.876 1.875 4.419 2.929 7.071 2.929s5.195-1.054 7.071-2.929l58.332-58.332c1.875-1.876 2.929-4.419 2.929-7.071s-1.053-5.196-2.928-7.072zm-441.073-136.847c-30.952-30.952-47.998-72.104-47.998-115.876s17.046-84.925 47.998-115.876c30.951-30.952 72.104-47.998 115.876-47.998 43.771 0 84.924 17.046 115.876 47.998 63.895 63.894 63.895 167.857 0 231.752-63.895 63.896-167.859 63.895-231.752 0zm234.551 24.582c3.891-3.292 7.676-6.772 11.344-10.439 3.667-3.668 7.147-7.453 10.439-11.344l59.746 59.746-21.783 21.783zm141.119 163.525-78.435-78.435 44.189-44.189 78.435 78.435z"/></g></svg>