<svg xmlns="http://www.w3.org/2000/svg" viewBox="0 0 42.02 40.76">    
    <g id="Layer_2" data-name="Layer 2">
        <g id="draw_boxes" data-name="draw boxes">
            <path fill="#cccccc" class="cls-1" d="M41.67,35.89A1.33,1.33,0,0,0,41.58,34L30.34,23.79a1.34,1.34,0,0,0-1.88.09l-4,4.44a1.34,1.34,0,0,0,.09,1.88L35.78,40.41a1.32,1.32,0,0,0,1.88-.09Z"/>
            <path fill="#cccccc" class="cls-1" d="M14.72,0A14.72,14.72,0,1,1,9.91.81,14.73,14.73,0,0,1,14.72,0m0,4a10.82,10.82,0,0,0-3.51.59h0A10.73,10.73,0,1,0,14.72,4Z"/>
            <path fill="#cccccc" class="cls-1" d="M14.72,21.39c7.68-4,7.4-8.47,5.22-10.65s-5.22-.71-5.22,1c0-1.73-3-3.2-5.21-1S7,17.43,14.72,21.39Z"/>
        </g>
    </g>
</svg>