<svg height="480pt" viewBox="0 0 480 480.00009" width="480pt" xmlns="http://www.w3.org/2000/svg"><path fill="#ee5253" d="m328 0h-176c-13.253906 0-24 10.746094-24 24v288c0 13.253906 10.746094 24 24 24h48v-16h-48c-4.417969 0-8-3.582031-8-8v-288c0-4.417969 3.582031-8 8-8h176c4.417969 0 8 3.582031 8 8v288c0 4.417969-3.582031 8-8 8h-48v16h48c13.253906 0 24-10.746094 24-24v-288c0-13.253906-10.746094-24-24-24zm0 0"/><path fill="#ee5253" d="m24 304h88v-16h-88c-4.417969 0-8-3.582031-8-8v-224c0-4.417969 3.582031-8 8-8h88v-16h-88c-13.253906 0-24 10.746094-24 24v224c0 13.253906 10.746094 24 24 24zm0 0"/><path fill="#ee5253" d="m192 40h16v16h-16zm0 0"/><path fill="#ee5253" d="m224 40h64v16h-64zm0 0"/><path fill="#ee5253" d="m168 80h16v32h-16zm0 0"/><path fill="#ee5253" d="m200 80h16v32h-16zm0 0"/><path fill="#ee5253" d="m232 80h16v32h-16zm0 0"/><path fill="#ee5253" d="m264 80h16v32h-16zm0 0"/><path fill="#ee5253" d="m296 80h16v32h-16zm0 0"/><path fill="#ee5253" d="m232 136h56v16h-56zm0 0"/><path fill="#ee5253" d="m216 280h48c13.253906 0 24-10.746094 24-24s-10.746094-24-24-24h-48c-13.253906 0-24 10.746094-24 24s10.746094 24 24 24zm0-32h48c4.417969 0 8 3.582031 8 8s-3.582031 8-8 8h-48c-4.417969 0-8-3.582031-8-8s3.582031-8 8-8zm0 0"/><path fill="#ee5253" d="m88 64h24v16h-24zm0 0"/><path fill="#ee5253" d="m32 104h16v24h-16zm0 0"/><path fill="#ee5253" d="m64 104h16v24h-16zm0 0"/><path fill="#ee5253" d="m96 104h16v24h-16zm0 0"/><path fill="#ee5253" d="m56 64h16v16h-16zm0 0"/><path fill="#ee5253" d="m64 264h48v-16h-48c-4.417969 0-8-3.582031-8-8s3.582031-8 8-8h48v-16h-48c-13.253906 0-24 10.746094-24 24s10.746094 24 24 24zm0 0"/><path fill="#ee5253" d="m456 32h-88v16h88c4.417969 0 8 3.582031 8 8v224c0 4.417969-3.582031 8-8 8h-88v16h88c13.253906 0 24-10.746094 24-24v-224c0-13.253906-10.746094-24-24-24zm0 0"/><path fill="#ee5253" d="m368 64h56v16h-56zm0 0"/><path fill="#ee5253" d="m432 104h16v24h-16zm0 0"/><path fill="#ee5253" d="m400 104h16v24h-16zm0 0"/><path fill="#ee5253" d="m368 104h16v24h-16zm0 0"/><path fill="#ee5253" d="m368 216v16h48c4.417969 0 8 3.582031 8 8s-3.582031 8-8 8h-48v16h48c13.253906 0 24-10.746094 24-24s-10.746094-24-24-24zm0 0"/><path fill="#ee5253" d="m360 472v-87.144531c.148438-11.941407-8.273438-22.273438-20-24.535157-6.980469-1.152343-14.113281.820313-19.511719 5.390626-.160156.128906-.320312.265624-.472656.410156-9.101563-8.171875-22.898437-8.171875-32 0-6.617187-5.675782-15.71875-7.480469-24-4.761719v-40.503906c.152344-11.941407-8.273437-22.273438-20-24.535157-6.96875-1.183593-14.109375.765626-19.507813 5.332032-5.402343 4.5625-8.511718 11.277344-8.507812 18.347656v97.871094l-21.230469-12.734375c-6.480469-3.914063-14.519531-4.21875-21.273437-.800781l-1.273438.632812c-6.9375 3.472656-11.550781 10.324219-12.15625 18.058594-.605468 7.734375 2.886719 15.222656 9.199219 19.734375l50.085937 35.765625c1.359376.964844 2.984376 1.480468 4.648438 1.472656h128c4.417969 0 8-3.582031 8-8zm-16-8h-117.441406l-48-34.28125c-1.746094-1.246094-2.714844-3.320312-2.550782-5.460938.164063-2.140624 1.433594-4.042968 3.351563-5.011718l1.273437-.621094c1.867188-.941406 4.089844-.859375 5.878907.222656l33.351562 20c2.472657 1.492188 5.554688 1.539063 8.066407.121094 2.515624-1.417969 4.070312-4.082031 4.070312-6.96875v-112c0-2.367188 1.046875-4.613281 2.859375-6.132812 1.816406-1.523438 4.210937-2.160157 6.539063-1.746094 3.996093.976562 6.753906 4.625 6.601562 8.734375v63.144531c0 4.417969 3.582031 8 8 8s8-3.582031 8-8 3.582031-8 8-8 8 3.582031 8 8 3.582031 8 8 8 8-3.582031 8-8 3.582031-8 8-8 8 3.582031 8 8 3.582031 8 8 8 8-3.582031 8-8c0-2.367188 1.046875-4.613281 2.859375-6.132812 1.816406-1.523438 4.210937-2.160157 6.539063-1.746094 3.996093.976562 6.753906 4.625 6.601562 8.734375zm0 0"/><path fill="#ee5253" d="m192 136h24v16h-24zm0 0"/><path fill="#ee5253" d="m192 168h96v16h-96zm0 0"/><path fill="#ee5253" d="m208 200h64v16h-64zm0 0"/><path fill="#ee5253" d="m64 152h48v16h-48zm0 0"/><path fill="#ee5253" d="m80 184h32v16h-32zm0 0"/><path fill="#ee5253" d="m368 152h40v16h-40zm0 0"/><path fill="#ee5253" d="m368 184h24v16h-24zm0 0"/></svg>