<svg xmlns="http://www.w3.org/2000/svg" viewBox="0 0 42.02 31.17">
    <g id="Layer_2" data-name="Layer 2">
        <g id="middle">
            <path class="cls-1" d="M9.37,20.31A13.43,13.43,0,0,0,6.8,24.07,14.3,14.3,0,0,0,5.64,28c0,.34-.07.68-.09,1s0,.67,0,1v1.08H2A2,2,0,0,1,.59,30.5,2,2,0,0,1,0,29.09,12.63,12.63,0,0,1,6,18.34,9.73,9.73,0,0,0,9.37,20.31Zm4.13-3.68a8.66,8.66,0,0,1-1.61-1.7,9.2,9.2,0,0,1-1.74-5.72A8.93,8.93,0,0,1,11,5.64a9.08,9.08,0,0,1,1.72-2.52A8.06,8.06,0,0,0,7.47,17.38a8.16,8.16,0,0,0,2.93,1.54c.28-.28.56-.52.84-.75l.34-.28c.3-.23.58-.44.86-.63a1.43,1.43,0,0,1,1.27-.16l.93.34A8.39,8.39,0,0,1,13.5,16.63Zm19.15,3.68a13.64,13.64,0,0,1,2.57,3.76A14.3,14.3,0,0,1,36.38,28c0,.34.07.68.09,1s0,.67,0,1v1.08H40a2,2,0,0,0,1.42-.59A2,2,0,0,0,42,29.09a12.63,12.63,0,0,0-6-10.75A9.73,9.73,0,0,1,32.65,20.31Zm-5.27-2.87.93-.34a1.43,1.43,0,0,1,1.27.16c.28.19.56.4.86.63l.34.28c.28.23.56.47.84.75a8.06,8.06,0,0,0-2.33-15.8A9.08,9.08,0,0,1,31,5.64a8.93,8.93,0,0,1,.86,3.57,9.2,9.2,0,0,1-1.74,5.72,8.66,8.66,0,0,1-1.61,1.7A8.39,8.39,0,0,1,27.38,17.44Zm2-11.93A9.23,9.23,0,0,0,20.92,0,9.23,9.23,0,0,0,11.7,9.22a9.14,9.14,0,0,0,1.94,5.66,8.6,8.6,0,0,0,1.65,1.65,9.21,9.21,0,0,0,3,1.53,9.21,9.21,0,0,0,8.28-1.53A9,9,0,0,0,28.1,15a9.23,9.23,0,0,0,1.26-9.5Zm-.45,13.11h0a4.06,4.06,0,0,0-.36-.26,1.1,1.1,0,0,0-.14-.09A16.08,16.08,0,0,1,25,19.8a17.09,17.09,0,0,1-4.08.58c-1.2.11-3.87-.67-5.72-1.28l-.48-.16-1.5-.52c-.26.17-.51.36-.75.55l-.32.27A14.67,14.67,0,0,0,11,20.31a13.86,13.86,0,0,0-2.57,3.76A14.28,14.28,0,0,0,7.26,28c0,.34-.07.68-.1,1s0,.67,0,1v1.17L34.7,31v-1.2a13.67,13.67,0,0,0-1.77-6.73,14.08,14.08,0,0,0-3.38-4Zm-.37-.26a4.06,4.06,0,0,1,.36.26m-.36-.26a4.06,4.06,0,0,1,.36.26"/>
        </g>
    </g>
</svg>